<svg xmlns="http://www.w3.org/2000/svg" version="1.1" xmlns:xlink="http://www.w3.org/1999/xlink" xmlns:svgjs="http://svgjs.dev/svgjs" width="1440" height="560" preserveAspectRatio="none" viewBox="0 0 1440 560"><g mask="url(&quot;#SvgjsMask2129&quot;)" fill="none"><rect width="1440" height="560" x="0" y="0" fill="url(&quot;#SvgjsLinearGradient2130&quot;)"></rect><path d="M -740.0516384717894,80 C -596.05,152.6 -308.05,412 -20.05163847178938,443 C 267.95,474 411.95,265 699.9483615282106,235 C 987.95,205 1271.94,293.6 1419.9483615282106,293 C 1567.96,292.4 1435.99,244.2 1440,232" stroke="rgba(233, 67, 0, 0.58)" stroke-width="2"></path><path d="M -1151.605233447564,443 C -1007.61,399.2 -719.61,241.2 -431.6052334475638,224 C -143.61,206.8 0.39,370.2 288.3947665524362,357 C 576.39,343.8 778.07,160 1008.3947665524362,158 C 1238.72,156 1353.68,309.2 1440,347" stroke="rgba(233, 67, 0, 0.58)" stroke-width="2"></path><path d="M -1258.8889621337623,272 C -1114.89,313.6 -826.89,493 -538.8889621337623,480 C -250.89,467 -106.89,238.8 181.11103786623767,207 C 469.11,175.2 649.33,333.2 901.1110378662377,321 C 1152.89,308.8 1332.22,181 1440,146" stroke="rgba(233, 67, 0, 0.58)" stroke-width="2"></path><path d="M -1335.6739106687435,258 C -1191.67,287.6 -903.67,436.4 -615.6739106687435,406 C -327.67,375.6 -183.67,98.2 104.32608933125653,106 C 392.33,113.8 557.19,418.8 824.3260893312565,445 C 1091.46,471.2 1316.87,278.6 1440,237" stroke="rgba(233, 67, 0, 0.58)" stroke-width="2"></path><path d="M -177.61345712468426,185 C -33.61,226.2 254.39,409.8 542.3865428753157,391 C 830.39,372.2 974.39,97.4 1262.3865428753156,91 C 1550.39,84.6 1946.86,324.8 1982.3865428753156,359 C 2017.91,393.2 1548.48,281.4 1440,262" stroke="rgba(233, 67, 0, 0.58)" stroke-width="2"></path></g><defs><mask id="SvgjsMask2129"><rect width="1440" height="560" fill="#ffffff"></rect></mask><linearGradient x1="100%" y1="50%" x2="0%" y2="50%" gradientUnits="userSpaceOnUse" id="SvgjsLinearGradient2130"><stop stop-color="rgba(255, 106, 0, 0.44)" offset="0.21"></stop><stop stop-color="rgba(249, 164, 103, 1)" offset="0.94"></stop></linearGradient></defs></svg>