<svg xmlns="http://www.w3.org/2000/svg" version="1.1" xmlns:xlink="http://www.w3.org/1999/xlink" xmlns:svgjs="http://svgjs.dev/svgjs" width="1440" height="560" preserveAspectRatio="none" viewBox="0 0 1440 560"><g mask="url(&quot;#SvgjsMask1981&quot;)" fill="none"><rect width="1440" height="560" x="0" y="0" fill="url(&quot;#SvgjsLinearGradient1982&quot;)"></rect><path d="M -596.9149450725498,288 C -524.91,259 -380.91,108.8 -236.91494507254984,143 C -92.91,177.2 -20.91,461.4 123.08505492745016,459 C 267.09,456.6 339.09,133.4 483.0850549274502,131 C 627.09,128.6 699.09,452.6 843.0850549274502,447 C 987.09,441.4 1083.7,127 1203.08505492745,103 C 1322.47,79 1392.62,282.2 1440,327" stroke="rgba(219, 160, 44, 0.58)" stroke-width="2"></path><path d="M -424.2621069008746,402 C -352.26,338.4 -208.26,75 -64.2621069008746,84 C 79.74,93 151.74,452 295.7378930991254,447 C 439.74,442 511.74,85.6 655.7378930991254,59 C 799.74,32.4 871.74,302.2 1015.7378930991254,314 C 1159.74,325.8 1290.89,120 1375.7378930991254,118 C 1460.59,116 1427.15,266.8 1440,304" stroke="rgba(219, 160, 44, 0.58)" stroke-width="2"></path><path d="M -660.1410032903254,266 C -588.14,295 -444.14,409.8 -300.14100329032544,411 C -156.14,412.2 -84.14,255 59.85899670967456,272 C 203.86,289 275.86,516.8 419.85899670967456,496 C 563.86,475.2 635.86,181 779.8589967096746,168 C 923.86,155 1007.83,419.8 1139.8589967096746,431 C 1271.89,442.2 1379.97,265.4 1440,224" stroke="rgba(219, 160, 44, 0.58)" stroke-width="2"></path><path d="M -449.0966271103862,347 C -377.1,294.2 -233.1,83.6 -89.09662711038618,83 C 54.9,82.4 126.9,324 270.9033728896138,344 C 414.9,364 486.9,190 630.9033728896138,183 C 774.9,176 846.9,299 990.9033728896138,309 C 1134.9,319 1261.08,200 1350.9033728896138,233 C 1440.72,266 1422.18,425.8 1440,474" stroke="rgba(219, 160, 44, 0.58)" stroke-width="2"></path><path d="M -199.24401917790007,400 C -127.24,373 16.76,248 160.75598082209993,265 C 304.76,282 376.76,505.4 520.7559808220999,485 C 664.76,464.6 736.76,185.4 880.7559808220999,163 C 1024.76,140.6 1096.76,383.6 1240.7559808221,373 C 1384.76,362.4 1560.91,117.6 1600.7559808221,110 C 1640.6,102.4 1472.15,290 1440,335" stroke="rgba(219, 160, 44, 0.58)" stroke-width="2"></path><path d="M -242.49870530425645,243 C -170.5,290.8 -26.5,491.8 117.50129469574355,482 C 261.5,472.2 333.5,221.6 477.5012946957436,194 C 621.5,166.4 693.5,336.4 837.5012946957436,344 C 981.5,351.6 1053.5,242.6 1197.5012946957436,232 C 1341.5,221.4 1509,315.6 1557.5012946957436,291 C 1606,266.4 1463.5,145.4 1440,109" stroke="rgba(219, 160, 44, 0.58)" stroke-width="2"></path></g><defs><mask id="SvgjsMask1981"><rect width="1440" height="560" fill="#ffffff"></rect></mask><linearGradient x1="15.28%" y1="139.29%" x2="84.72%" y2="-39.29%" gradientUnits="userSpaceOnUse" id="SvgjsLinearGradient1982"><stop stop-color="rgba(255, 106, 0, 1)" offset="0.21"></stop><stop stop-color="rgba(249, 164, 103, 1)" offset="0.94"></stop><stop stop-color="rgba(215, 72, 42, 1)" offset="1"></stop></linearGradient></defs></svg>