<?xml version='1.0' encoding='utf-8'?>
<svg xmlns="http://www.w3.org/2000/svg" enable-background="new 0 0 1280 385" version="1.1" viewBox="0 0 1280 385">
<g stroke-width=".0938">
	<linearGradient id="a" x1="640" x2="640" y1="-2.8734e-8" y2="385" gradientUnits="userSpaceOnUse">
		<stop stop-color="#F15A25" offset="0"/>
		<stop stop-color="#F36E27" offset=".2112"/>
		<stop stop-color="#F8A12A" offset=".641"/>
		<stop stop-color="#FCD12E" offset="1"/>
	</linearGradient>
	<rect width="1280" height="385" fill="url(#a)" stroke="#F15A25"/>
	<path d="m1175.6 65.68c1.4-1.08 2.77-2.23 4.34-3.09 3.6201 0.56 7.2201 1.42 10.92 1.18 0.78 3.17 3.04 5.48 5.7001 7.24-0.53-1.47-1.0601-2.93-1.5901-4.39 0.3301-1.19 0.6801-2.37 1.04-3.56 0.54 1.17 1.08 2.35 1.63 3.52 0.41 0.25 1.22 0.74 1.63 0.99 2.95 0.03 5.9199 0.05 8.89-0.15-0.13 0.62-0.4 1.85-0.53 2.47 0.67 1.08 1.36 2.16 2.0599 3.24 0.88-0.77 1.79-1.57 2.75-2.29 1.13 3.01 0.26 5.99-1.36 8.62 0.41 0.08 1.2101 0.26 1.61 0.35-0.1699 0.47-0.5199 1.43-0.6899 1.91-1.53-1.98-3.03-4.12-1.5601-6.68-2.71 1.36-2.8899 4.71-4.49 6.98-0.37-4.16-0.13-8.35-0.38-12.52-0.8199 0.93-1.6499 1.86-2.2999 2.9 0.34 2.72 1.49 5.26 1.97 7.96-2.26-2.24-4.4399-4.57-6.83-6.67 0.12 1.04 0.35 3.13 0.47 4.17-0.87-0.3-1.72-0.6-2.5601-0.9-0.7999 0.61-1.59 1.23-2.36 1.84 0.3401 1.5 0.67 2.99 1.01 4.49-1.5-2.14-2.9199-4.33-4.34-6.51-0.39 0.38-1.16 1.14-1.55 1.53-0.84-1.6-1.71-3.19-2.6-4.74-1.2999 3.72 2.26 6.99 2.1901 10.77 0.76 0.42 1.5499 0.84 2.34 1.27-1.05-0.1-2.08-0.19-3.09-0.28-0.61-2.11-1.24-4.21-1.8401-6.31-0.51 0.91-1.51 2.74-2.0199 3.65-1.8-1.86-3.5801-3.75-5.4501-5.53 1.1901 4.13 2.49 9.15 6.9401 10.88-1.5801 0.49-3.2101 0.69-4.8401 0.54-0.1599-1.67-0.3199-3.33-0.4299-5-2.22-0.86-4.47-1.69-6.7101-2.45-0.7599 2.54-0.2999 4.97 1.67 6.81-0.38 1.34-0.8099 2.67-1.12 4.01-1.24-0.99-2.4301-1.96-3.65-2.93 0.26 1 0.53 2 0.8201 3-2.05 0.79-4.0801 1.62-6.11 2.44 1.3999 1.95 2.61 4.03 3.49 6.27-3.7301-2.13-7.2001-4.69-10.32-7.63 2.12 3.31 3.27 7.08 4.1 10.9-3.3199-3.21-6.58-6.5-10.26-9.31-0.7599 0.76-1.5 1.52-2.23 2.28-0.98-0.22-1.95-0.44-2.9099-0.66 2.36 2.36 5.1699 4.19 8.1699 5.66 1.11 0.37 2.28 0.7 3.37 1.23 0.1801 1.38 0.3101 2.77 0.4 4.17-4.0699-0.75-7.5599-2.98-10.68-5.58 0.7999 1.75 1.61 3.5 2.45 5.24 2.7 0.58 5.71 1.47 6.73 4.37-0.8199-0.08-2.47-0.26-3.29-0.34 0.05 0.82 0.16 2.46 0.2201 3.28-1.8301-0.43-3.2201-1.36-2.9701-3.42-1.45-1.28-2.86-2.61-4.51-3.6-1.6399 0.74-2.99 1.93-4.4199 2.97 1.0599 0.62 2.13 1.26 3.21 1.9-0.7 0.06-2.09 0.18-2.79 0.24-0.46 0.95-0.9199 1.9-1.37 2.84 0.0701-1.09 0.15-2.19 0.2401-3.28-1.88-0.57-3.75-1.15-5.6201-1.72 0.8 0.63 1.6001 1.26 2.4301 1.9-0.05 1.51-0.0699 3.02-0.1 4.53 0.37 0.4 1.09 1.2 1.45 1.6-0.09 0.64-0.27 1.9-0.36 2.54 0.89 2.04 0.88 4.21-0.14 6.2 0.26-1.05 0.53-2.1 0.8301-3.14-0.64-0.32-1.91-0.96-2.55-1.28-0.54 1.65-1.08 3.29-1.6 4.93 1.62 0.65 3.25 1.36 4.97 1.77 1.64-0.1 1.6801-2.33 2.62-3.34 0.96 0.76 1.9401 1.51 2.9401 2.26-0.2301-1.29-0.4401-2.57-0.64-3.85 0.89 0.39 1.7999 0.77 2.71 1.17-0.4-1.5-1.67-3-0.99-4.6 1.89 0.02 3.77 0.2 5.6799 0.34-0.6399 2.13-1.2899 4.25-1.9099 6.38 1.0399-0.81 2.08-1.63 3.14-2.46-0.2001-0.62-0.6001-1.88-0.8-2.5 1.05-0.79 2.1-1.58 3.16-2.38 1.4 1.62 2.8199 3.23 4.3099 4.79-0.46-2.18-0.9299-4.34-1.38-6.52 1.78 2.52 3.9501 4.79 7.02 5.68 0.28-1.41 0.5701-2.82 0.88-4.22-0.97-0.92-1.91-1.81-2.78-2.79 2.11-0.79 3.89 1.05 5.64 1.98 2.47 1.42 4.23 3.7 5.8201 6.02-0.3301-0.77-0.99-2.31-1.3201-3.08 2.1 0.93 4.23 1.87 6.36 2.78 0.54-0.45 1.63-1.35 2.17-1.8 1.35 0.53 2.74 1.06 4.12 1.59-0.16-1.74-0.3-3.47-0.4399-5.2 1.59 1.41 3.1899 2.84 4.7899 4.26 0.7101-1.05 1.4301-2.11 2.16-3.16 2.17 0.68 3.6 2.35 4.64 4.32 0.1-0.81 0.22-1.62 0.36-2.43 2.85 1.93 5.6899 3.92 8.09 6.42 0.29-0.47 0.87-1.42 1.16-1.9 1.72-0.09 3.49-0.44 5.24-0.1 2.47 2.39 4.48 5.34 7.67 6.92-1.05 2.86-1.37 5.94 0.2 8.68 0.33-1.31 0.66-2.62 1-3.94 1.02-0.84 2.0701-1.67 3.14-2.5-0.46 1.38-0.9301 2.75-1.4 4.12 2.09 2.24 4.54 4.12 7.16 5.74-0.83 1.82-1.5701 3.69-2.23 5.58 1.02-0.26 3.0599-0.78 4.08-1.04-1.15 3.37-3.73 5.66-7.0699 6.75 0.86-1.53 1.7699-3.03 2.63-4.57-2.51 1.01-4.78 2.49-7.0601 3.89 2.03-3.7 4.97-6.8 6.99-10.52-1.3199 0.62-2.73 1.1-3.87 1.99-1.02 2.17-1.59 4.56-3.08 6.49-0.17-2.18-0.22-4.36-0.28-6.55-0.65-0.77-1.28-1.54-1.89-2.31-1.46 1.12-3.09 1.96-4.92 2.16-0.5499 1.23-1.1299 2.47-1.6299 3.71 0.0499-2.1 0.09-4.2 0.09-6.3-1-1.73-1.2001-3.7-1.37-5.64-2.24 2.75-2.4501 6.44-3.7101 9.64-0.0499 0.96-0.08 1.92-0.1 2.88-1.24-2.79-0.24-5.68 0.8101-8.37-0.85 0.53-2.54 1.6-3.39 2.13-0.2001-2.46-0.4301-4.92-0.7001-7.36-2.1 3.78-2.9099 8.4-1.0699 12.45-0.74-0.11-2.22-0.34-2.96-0.45 0.01-2.15 0.4299-4.25 1.49-6.15-1.12-1.85-2.3-3.66-3.51-5.44-1.89 1.64-2.6 3.91-2.37 6.36-0.9 1.01-1.79 2.02-2.66 3.03-0.42-1.48-0.72-2.95-1.1-4.42-0.1801 0.7-0.54 2.1-0.72 2.81-1.86-0.15-3.7101-0.3-5.54-0.43-0.03 2.17-0.1 4.34-0.21 6.51-2.23-3.62-3.51-7.68-4.5801-11.75 0.0601 3.79-0.5 7.55-1.6699 11.15-1.02-2.54-0.9601-6.09-2.77-7.92-0.22 0.29-0.6801 0.87-0.9 1.16-0.5-0.86-0.97-1.72-1.41-2.59 0.4401-0.02 1.3201-0.06 1.76-0.08-0.0399-1.14-0.1-2.29-0.1699-3.44-1.2101 0.23-2.41 0.46-3.5901 0.69-0.58-0.99-1.13-1.98-1.6799-2.96 0.5599 4.58 2.9299 8.51 5.5399 12.2 1.3401 1.5-0.88 3.1-1.2 4.54-2.42-3.02-4.28-6.42-5.67-10.01-0.1799 1.65-0.37 3.31-0.51 4.97 1.8101 2.14 3.25 4.58 3.9501 7.33-1.0701-0.69-2.08-1.38-3.1-2.08-0.2001 0.76-0.6001 2.29-0.8 3.05-0.46-0.02-1.39-0.07-1.85-0.09 1.49-3.57-0.23-7.09-1.48-10.41-1.27 0.3-2.52 0.59-3.76 0.88-0.04 1.72 0.35 3.52-0.1801 5.19-1.4099 1.03-2.9299 1.85-4.4099 2.72 1.1699 0.16 2.36 0.32 3.5699 0.48 0.4-0.91 0.8199-1.83 1.25-2.74 1.15 0.27 2.3099 0.54 3.49 0.8-0.03 1.86-0.1 3.74 0.2 5.6 0.9801-0.04 1.9801-0.2 2.9901-0.33 0.1 0.86 0.2999 2.6 0.3999 3.46 1.8401-1.27 3.6801-2.57 5.53-3.86 0.3 2.53 0.66 5.06 1.0701 7.58-0.4801 0.86-0.9501 1.72-1.4 2.57 0.52-0.52 1.5599-1.56 2.08-2.08 0.48 1.62 1.04 3.24 1.5701 4.86 0.6299-0.03 1.8899-0.1 2.5199-0.13 0.61 1.16 1.2301 2.32 1.87 3.48 0.9501-1.38 1.9301-2.75 2.92-4.13 0.0601 1.72 0.13 3.43 0.23 5.15 1.2101-0.11 2.4501-0.19 3.7001-0.22 0.36 0.98 0.71 1.97 1.0399 2.97 1.4401 2.79 2.41 5.8 2.5801 8.96 0.39-0.4 1.1599-1.21 1.5399-1.62 1.42 0.46 2.8501 0.92 4.3 1.4 0.21 2.71 0.4399 5.56 2.3199 7.7-1.99 1.93-3.38 4.33-3.95 7.05 1.9301-1.68 3.96-3.26 6.23-4.48-0.6799 1.64-1.39 3.26-2.09 4.88 1.38 1.6 2.76 3.22 4.16 4.83-1.4 1.1-2.64 2.38-3.8301 3.68 1.01 0.08 3.03 0.26 4.04 0.34-1.3 1.23-2.5701 2.47-3.84 3.71-1.24 0.11-3.7201 0.32-4.9601 0.42l3.52-2.52c-0.24-0.16-0.73-0.48-0.98-0.64-2.0601 0.92-4.2 1.72-6.35 2.32 2.85-2.93 6.26-5.22 9.5499-7.61-1.26 0.12-2.5 0.25-3.73 0.38-1.5599 2.05-3.23 4.03-5.1899 5.7 0.5699-2.52 1.2999-5 1.98-7.49-1.29 0.88-2.5601 1.77-3.8201 2.65 0.13-0.58 0.37-1.74 0.5-2.31-0.86-0.27-1.7-0.54-2.5199-0.8-1.13 1.02-2.25 2.05-3.38 3.05 1.1599-2.44 2.76-4.83 2.6799-7.65 0.3-0.5 0.9-1.49 1.2001-1.99 0-0.62 0.01-1.86 0.0199-2.48 1.14-0.94 2.3101-1.88 3.4401-2.86l-2.84 1.76 0.12-2.27c-0.27 0.41-0.8 1.23-1.0601 1.64-0.89 0.38-1.76 0.77-2.61 1.17l2.58-0.49c-0.2699 1.14-0.5399 2.28-0.7899 3.42-2.6801 2.59-5.25 5.31-7.35 8.39 0.0099-0.71 0.0299-2.12 0.0399-2.83 1.41-1.26 2.78-2.52 4.23-3.77-0.95-0.01-2.85-0.04-3.7999-0.05 1.13-2.15 2.2899-4.3 3.34-6.5-2.58 2.16-4.77 4.71-6.83 7.34 0.13 0.77 0.2799 1.55 0.4399 2.33-0.4 0.14-1.1899 0.43-1.59 0.57-2.67-2.78 0.84-4.98 3.0499-6.36 0.1201-1.98 0.2001-3.97 0.3-5.95-2.24 0.51-4.1 1.72-5.39 3.59-1.23 0.51-2.48 1-3.6899 1.5 0.36-0.98 1.08-2.94 1.4399-3.91-0.64 0.41-1.9299 1.24-2.5699 1.65-0.88-1.22-1.73-2.45-2.6801-3.59-1.89 1.52-3.47 3.35-5.1699 5.05 1.36-3.77 2.86-7.49 4.49-11.16-2.61 2.79-5.62 5.14-8.53 7.59 1.51-2.43 2.9299-4.91 4.3199-7.42-1.09-0.11-2.1799-0.21-3.25-0.31 0.38 2.88-1.4399 4.75-4.1 5.43 0.52-3.94 1.71-7.75 3.47-11.3-1.25 1.1-2.58 2.13-3.64 3.41-0.72 2.11-1.0099 4.34-1.5599 6.49-0.53-0.28-1.6-0.83-2.14-1.11-0.6 0.03-1.8199 0.11-2.4299 0.15 2.24-2.56 3.97-5.49 5.1699-8.67-0.86-0.59-1.7-1.19-2.52-1.78-0.58 0.46-1.73 1.38-2.3099 1.85 0.13-2.38 0.3099-4.75 0.49-7.12-3.64 3-7.5601 5.66-11.89 7.55 0.77-0.5 1.54-0.99 2.33-1.47-0.1799-0.78-0.5499-2.33-0.74-3.1 0.51-2 0.89-4.03 1.15-6.07-2.38 2.57-4.8099 5.13-7.65 7.2-0.4399 0.75-0.85 1.5-1.25 2.26-0.87-1.53-1.74-3.04-2.61-4.55-0.48 2.26-0.8199 4.56-0.83 6.88 0.35 0.57 1.0399 1.73 1.39 2.3-3.8401-1.47-6.25-4.73-8.11-8.23-0.01-1.09-0.01-2.17 0.0199-3.26-1.0499 0-2.09-0.02-3.11-0.01 0.0901 1.49 0.2201 2.98 0.29 4.47 0.33-0.75 1-2.27 1.33-3.02 3.3501 0.75-0.38 4.09-1.76 5.25-0.45 1.79-0.86 3.6-1.25 5.4-1.13 0.53-2.1899 1.07-3.2899 1.6 0.9099 0.12 2.72 0.35 3.63 0.47-2.0801 3.78-4.02 7.66-5.23 11.82 1.08-0.44 2.1699-0.88 3.2799-1.32 0.27 0.34 0.8 1.02 1.0701 1.36-1.51 0.56-3.03 1.11-4.52 1.67 2.91 0.31 4.01 2.44 4.16 5.1 1.47-0.48 2.98-0.98 4.5699-1.04-2.16 2.34-4.52 4.48-6.7 6.79 0.5 0.64 1.01 1.29 1.5399 1.93-2.0499 1.31-4.2799 2.6-5.1599 5.01 2.72-0.4 5.2799-1.42 7.73-2.65 0.34 0.34 1.03 1.02 1.37 1.35 0.61-0.14 1.8199-0.44 2.4299-0.59-0.1899 0.51-0.5599 1.53-0.75 2.04-2.51 0.16-5.0199 0.32-7.5199 0.46 1.2599 1.34 3.0599 2.41 3.59 4.29-0.76 3.25-4.23 4.25-6.8301 5.57 1.8601 2.95 5.64 1.23 8.2401 0.37 2.5-0.28 1.6799-3.01 1.86-4.77 0.47 0.1 1.4099 0.29 1.88 0.38-0.1001 1.01-0.1801 2.01-0.24 3.02 1.1299 1.29 2.2799 2.57 3.0399 4.14-1.24-0.69-2.35-1.42-3.5-2.18-0.5699 1.36-1.14 2.72-1.71 4.07-1.36-0.79-2.67-1.57-3.98-2.38-1.5801 2.36-3.4501 4.53-4.7001 7.09-1 1.92 0.5601 3.83 1.17 5.61 1.46-0.64 2.95-1.27 4.4399-1.9-0.5 1.43-1.0199 2.86-1.48 4.31 1.4501-0.43 2.9601-0.85 4.4301-1.33 0.65-0.72 1.23-1.52 1.72-2.39l-1.8-0.42c1.29 0.04 2.6001 0.08 3.9301 0.12-1.67 2.81-4.46 4.38-7.3099 5.73 0.8999 1.18 1.8099 2.36 2.73 3.54-2.13-1.1-4.53-2.03-6.48-0.1 1.7799 0.4 3.5699 0.74 5.3899 1.03-1.45 0.93-2.87 1.87-4.2799 2.82 0.5399 0.69 1.11 1.38 1.6799 2.08-1.25 0.84-2.48 1.69-3.6799 2.56 0.87 0.16 2.63 0.49 3.51 0.65l-1.89 1.51 0.23-1.03c-0.96 1.06-1.88 2.12-2.8201 3.17 2.28 0.71 4.6801 1.35 6.5701 2.91-3.35 3.18-8.3301 3.75-12.72 4.33 2.59 1.46 5.47 3.09 5.3099 6.52 0.54 0.86 1.1 1.72 1.67 2.58 0.5699 0.1 1.71 0.3 2.28 0.4-4.7401 0.03-9.3501-1.54-14.07-1.3-1.9299 2.07-1.77 5.67-5.04 6.48 3.3401 2.18 7.2101 0.48 10.8 0.07-1.4-1.52-3.1801-2.52-4.87-3.63 0.5699-1.32 2.1801-0.96 3.34-1.27 0.16 0.82 0.48 2.47 0.64 3.3 1.26-0.11 2.53-0.21 3.8201-0.32-0.02 2.1 0.0099 4.21 0.08 6.32-3.6801 1.85-7.83 3.38-11.86 1.64 0.98 1.87 1.98 3.74 3.09 5.55 2.15-1.4 4.64-2 7.15-2.41 0.08 0.96 0.23 2.89 0.3099 3.86-0.8999-0.28-1.7799-0.56-2.6499-0.83-0.25 1.1-0.4801 2.19-0.6901 3.3-0.17 1.47 0.74 3.49-0.89 4.43-0.76 0.06-2.2999 0.18-3.0699 0.25 0.64-1.09 1.2899-2.18 1.96-3.26-2.15-0.67-4.2999-1.36-6.4299-2.07-1.3601 2.57-2.7101 5.15-4.3 7.59 0.79 0.18 2.38 0.56 3.17 0.74-2.37 2.76-6.2301 2.7-9.54 3.19 0.5699 1.2 1.12 2.42 1.64 3.66-0.6801 0.31-2.03 0.94-2.7101 1.25 1.1001 0.65 2.2401 1.32 3.3601 1.99-0.64 0.17-1.9301 0.51-2.5801 0.68 0.65 0.81 1.3101 1.62 1.98 2.44-1.5599 3.14-1.6699 6.6-1.0699 10-0.78-0.94-1.53-1.86-2.28-2.78-1.1 0.95-1.8099 2.08-2.13 3.37l0.4301 0.67c0.72 0.14 2.15 0.41 2.87 0.54-2.96 0.67-5.54 2.27-8.14 3.74-0.04-1.36-0.14-4.07-0.1901-5.42-0.33 0.24 4.6001 2.05 3.9601 0.01-0.73-0.8-1.47-1.56-2.2001-2.3-1.3099 0.43-2.62 0.83-3.8999 1.25 0.5299 0.5 1.0699 1 1.62 1.5-0.11 1.74-0.13 3.48-0.16 5.23 2.03 0.24 4.05 0.49 6.11 0.74-0.0599-0.58-0.1899-1.74-0.25-2.32 2.4 0.62 4.8199 1.24 7.25 1.82 0.09 0.54 0.26 1.63 0.35 2.17 0.04-0.58 0.13-1.74 0.17-2.33 1.7-0.47 3.4-0.94 5.13-1.39-1.61-0.31-3.3101-0.66-4.86-0.99 2.0299-2.04 4.96-1.14 7.49-1.12 0.61 1.36 1.24 2.7 1.91 4.05 0.5-0.61 1.5-1.84 2-2.45 3.4099 3.09 8.1399 3.35 12.49 3.88 3.9299-0.23 7.8999-1.42 11.8-0.14 5.73 1.68 11.7 1.81 17.62 2.12 0.0601-0.4 0.1901-1.19 0.26-1.59 0.53 0.3 1.5801 0.91 2.11 1.21 1.2001-0.53 2.41-1.05 3.65-1.57 3.8201-0.05 7.52-1.09 11.3-1.6 0.08-0.43 0.24-1.29 0.3199-1.72 0.4 0.27 1.21 0.81 1.61 1.07 4.89-3.53 10.19 2.21 15.2-0.49 0.4199 0.26 1.2699 0.8 1.6899 1.06 1.64-0.83 3.3-1.66 4.9501-2.52 1.09 0.18 3.2699 0.53 4.36 0.7-1.12 0.96-2.17 1.93-3.2201 2.93 1.4701-0.64 2.9401-1.34 4.37-2.12 3.28-0.41 6.54-1.04 9.8401-1.39 1.21 0.79 2.4 1.65 3.5599 2.56-0.15-0.74-0.4399-2.22-0.58-2.96 4.6799 1.39 9.4399 4.17 14.47 2.76 2.08-0.79 4.11-0.06 6.02 0.88-0.04-0.5-0.1-1.51-0.13-2.01 2.42 1.04 5.03 1.18 7.46 0.05 4.55 0.67 9.2001 1.15 13.78 0.42 3.47-0.63 7.1901-0.28 10.41-1.99 0.51 0.41 1.5399 1.24 2.0599 1.66 2.14-1.03 4.24-2.16 6.3501-3.29-0.0601 0.86-0.17 2.58-0.2301 3.44 0.4401-0.88 0.91-1.76 1.39-2.63 1.8 0.59 3.63 1.08 5.49 1.52-0.26-1.05-0.52-2.09-0.75-3.12 3.01 1.98 7.9501 5.74 10.54 1.03v51.13h-1280v-49.06c1.88-0.36 3.79-0.6 5.68-0.91 3.43-0.96 7.02-1.22 10.46-0.13 2.42 0.9 4.89 0.22 7.18-0.71 0.73 0.2 1.47 0.41 2.2 0.62 1.14-0.5 2.28-0.99 3.42-1.49 1.79-2.16 4.86-1.16 7.26-1.41-1.17 1.13-2.36 2.25-3.53 3.38 2.91-1.44 5.84-2.87 8.95-3.82 1.43 0.73 2.86 1.45 4.3 2.16-0.15-0.74-0.47-2.22-0.62-2.96 3.06 1.61 6.48 2.87 9.9 1.48-0.59-0.55-1.78-1.66-2.37-2.21 4.93 0.86 9.94 0.86 14.92 0.94-0.46-0.53-1.37-1.6-1.83-2.13 3.42 0.21 7 0.96 10.29-0.41 10.88-4.06 22.63 0.86 33.67-2.19 3.03-1.13 6.19-0.38 9.22 0.28 1.53-0.82 3.06-1.86 4.89-1.66 3.45 0.24 6.53-1.77 9.97-1.62 3.73-0.04 7.47 0.14 11.2 0.44-3.07 0.95-6.24 1.5-9.38 2.17 3.59 0.15 7.24-0.06 10.61-1.44 6.75-1.65 13.81-1.03 20.44 0.9-0.16-0.76-0.49-2.3-0.65-3.07 1.86 0.54 3.69 1.19 5.48 1.93-0.11-0.37-0.34-1.11-0.45-1.48 4.95 2.89 11.1 2.19 16.46 1l-0.4-2.24c5.41 0.98 10.87 1.88 16.38 2.01 1.92 0.66 3.84 1.32 5.76 1.99 1.38-0.91 3-0.95 4.56-0.56 8.27 1.32 17.1 2.68 25.12-0.51 0.5 0.49 1.5 1.45 2.01 1.94 1.56-0.59 3.13-1.18 4.69-1.81 2.42 0.99 4.84 1.99 7.26 3.03l-0.56-2.72c1.08 0.96 2.13 1.95 3.18 2.95 6.07 0.97 12.18-1.38 18.19 0.42-0.24 0.58-0.72 1.73-0.97 2.3 0.99-0.44 1.99-0.89 2.99-1.32 1.69 0.1 3.4 0.18 5.1 0.22 1.51 0.92 3.02 1.86 4.53 2.8 0.05-0.78 0.16-2.32 0.21-3.09 0.74 0.73 1.47 1.47 2.21 2.21 2.96 1.1 6.08 2 9.25 1.21-0.59-0.67-1.77-2.02-2.35-2.69 4.39 1.57 8.57 3.75 13.05 5.09 3.57 0.22 7.23-0.53 10.69 0.79-0.08-0.56-0.25-1.68-0.33-2.24 1.54 0.62 3.09 1.23 4.65 1.83 9.18-3.63 18.15 4.37 27.36 1.06 1.45 0.51 2.9 1.03 4.35 1.54 1.81-1.8 4.13-1.11 6.28-0.49 0.6-1.36 1.64-1.88 3.11-1.57 2.82 0.12 5.58 0.71 8.36 1.16-2.02 0.67-4.05 1.3-6.06 1.99 1.95-0.1 3.92-0.24 5.88-0.42 1.96-1.55 4.45-0.93 6.72-0.67 0.49-0.18 1.46-0.53 1.95-0.7 1.77 0.84 3.53 1.73 5.38 2.4 0.5-0.59 1.5-1.78 2-2.37 0.87 0.66 1.75 1.34 2.63 2.02 0.15-0.39 0.46-1.16 0.61-1.54 4.94 2.24 9.54-1.77 14.55-0.88 5.2 0.5 10.57 1.82 15.69 0.02 2.15-0.9 4.41-0.17 6.55 0.35 0.42-0.44 1.27-1.33 1.69-1.77 1.32 0.13 2.64 0.26 3.98 0.39 2.81-3.69 8.31-1.22 12.21-1.38-2.18 0.78-4.38 1.51-6.52 2.38 4.39 0.18 8.08-2.69 12.42-2.79 3.29-0.63 6.39 0.93 9.47 1.83-0.09-0.76-0.27-2.27-0.36-3.02 2.18 0.64 4.32 1.74 6.64 1.78 3.52-0.94 6.78-2.75 10.45-3.16 0.37 0.28 1.1 0.84 1.47 1.12 4.53-2.35 9.76-2.17 14.6-3.43 2.1-0.67 4.28-0.41 6.43-0.17-0.17-0.52-0.5-1.56-0.67-2.08 4.05 1.68 7.95-0.34 11.94-0.99 7.01 0.07 14.25 2.51 21.07-0.23 1.53 0.44 3.07 0.89 4.61 1.34 0.37-0.38 1.12-1.14 1.5-1.52 2.35 0.27 4.58-0.42 6.79-1.12 6.11-0.52 12.19 0.97 18.29 0.97 1.33 0.13 2.67 0.28 4.01 0.43 0.42-0.43 1.24-1.3 1.66-1.73 2.93 0.73 6.03 1.27 8.47 3.22-0.1-0.61-0.29-1.83-0.38-2.44 1.29 1.05 2.26 2.78 4.04 3.06 0.21-0.71 0.64-2.12 0.85-2.83 4.82 1.14 9.53 2.68 14.33 3.91 5.32 1.49 10.62 3.31 16.18 3.65 4.08 0.19 8.11 0.9 12.1 1.76-0.06-0.58-0.18-1.75-0.24-2.33 2.93 0.8 5.86 1.71 8.64 3 3.94-2 8.35-0.92 12.28 0.53 6.22-0.4 12.26 1.74 18.41 1.98 6.94-1.72 14.07-0.66 21.06 0.14 0.2-0.48 0.58-1.44 0.78-1.92 2.46 0.54 5.02 1.04 7.45 0.03 5.59-1.9 11.42-0.2 17.1 0.12 4.63 0.58 8.97-2.29 13.61-1.09 0.44-0.8 0.89-1.6 1.34-2.39 1.3 0.53 2.6 1.06 3.91 1.59-0.2-1.7-0.4-3.4-0.59-5.1 1.47 1.19 2.93 2.4 4.41 3.59 1.3-1.37 2.5-2.92 4.18-3.86 3.24 0.54 6.65 1.88 9.37-0.79 0.55 1.29 1.12 2.59 1.75 3.86 0.47-0.29 0.96-0.57 1.46-0.85-0.83-0.75-1.64-1.5-2.44-2.26 3.34-0.89 6.7-1.7 10.02-2.68 0.46 0.2 1.37 0.59 1.83 0.78-0.03-0.58-0.09-1.75-0.12-2.33 0.67 0.22 2 0.66 2.66 0.88 4.77-3.52 10.59 1.39 15.59-1.69 1.99 0.17 3.99-0.13 5.79-1.05 1.59-1.94 4.19-1.07 6.33-1.01 2.16 0.24 4.34 0.25 6.52 0.12 1.1 0.69 2.19 1.37 3.31 2.07 0.05-0.67 0.15-2.01 0.19-2.68 2.16 1.28 4.51 2.18 6.95 2.81 0.15-0.95 0.46-2.83 0.61-3.78 1.21 0.56 2.46 1.14 3.7 1.7 0.19-0.76 0.58-2.29 0.78-3.06 1.25 1.53 2.5 3.06 3.7401 4.61 1.79-1.77 4.19-4.71 6.99-3.06 2.52 1.6 4.56 3.96 7.49 4.9 0.31-0.68 0.94-2.02 1.25-2.7 1.69 0.91 3.6 1.64 4.74 3.3l-0.24-1.76c1.25-0.44 2.51-0.86 3.78-1.27 1.56 0.57 3.3701 1.57 4.53-0.31 2.75 1.36 5.69 2.25 8.67 2.96 5.78-2.66 11.34 0.98 17.06 1.72 0.81 1.04 1.64 2.09 2.49 3.13 1.57-1.05 3.22-2.57 5.3-1.99 1.95 0.81 3.34 2.53 5.18 3.55 3.85 1.53 8.04 1.71 12.13 1.74 1.27 0.72 2.57 1.42 3.88 2.12 3.93-3.61 9.5699-2.34 14.38-3.31 0.0699 0.14 0.21 0.41 0.28 0.55 0.74-0.25 2.21-0.74 2.95-0.99 0.86 0.92 1.74 1.85 2.62 2.78 1.69-0.02 3.4-0.02 5.12-0.02 0.26-0.3 0.78-0.91 1.04-1.22 3.12 1.55 6.47 3.64 10.12 2.84 2.44-0.55 4.88-0.06 7.23 0.71-0.24 0.88-0.47 1.77-0.69 2.67 1.7 0.92 3.4 1.85 5.1 2.82 2.61-0.65 5.16-1.56 7.59-2.75 2.81 0.29 5.71 0.25 8.17-1.34 3.81 1.65 7.88 0.57 11.75-0.26 4.01-3.33 9.4-1.66 14.13-1.77 6.11-0.28 12.23 3.22 18.18 0.42 2.74 1.33 5.48 0.1 8.17-0.67 2.2-1.06 4.63-1.29 7.05-1.52-0.34 1.28-0.67 2.57-1.03 3.85 0.44-0.1 1.32-0.29 1.76-0.38-0.14-0.74-0.43-2.21-0.57-2.95 2.75 0.38 5.51 0.71 8.27 1.08-1.28-3.45 2.79-3.98 5.22-3.91 4.59 0.45 9.03 1.91 13.68 1.97-0.0801-0.69-0.2301-2.09-0.3101-2.78 1.29-0.35 2.59-0.7 3.91-1.05-1.49-0.86-2.9501-1.72-4.41-2.59 1.5-0.21 3.01-0.42 4.53-0.61-0.21-1.79-1.1801-3.93 0.24-5.48 2.52-2.4 6.33-2.76 8.92-5.09 1.6799-1.45 0.75-3.81 0.73-5.7 1.1699-0.18 2.36-0.4 3.5499-0.64 0.04-1.46-1.48-2.24-2.25-3.29 1.2201-0.63 2.4-1.28 3.65-1.91-0.96-0.32-2.86-0.96-3.8199-1.27 1.39-2.65 3.4299-4.85 5.49-6.99 0.6899 2.32 1.3099 4.65 2.0499 6.96 0.55-1.81 0.8501-3.68 1.16-5.54-0.6899-0.25-2.08-0.74-2.77-0.99 0.87-1.1 1.79-2.19 2.7001-3.27-0.3-0.48-0.89-1.45-1.1901-1.93 2.52-0.53 5.01-1.16 7.47-1.98-1.7799-0.67-3.5399-1.29-5.3099-1.9 0.14-0.5 0.42-1.48 0.5599-1.98 1.3101 0.55 2.62 1.11 3.9401 1.67-0.12-0.33-0.37-1-0.5-1.33 1.58-1.21 3.14-2.45 4.71-3.68-0.9099-1.42-1.8199-2.83-2.72-4.24-1.1899 0.76-2.38 1.52-3.55 2.27 0-2.26 1.0601-3.59 3.3401-3.48-0.0601-0.47-0.2001-1.41-0.27-1.89 0.72-0.02 2.16-0.08 2.88-0.1 0.4-1.05 0.8099-2.09 1.23-3.12 2.11-0.39 4.23-0.77 6.37-1.09-1.2-0.37-2.45-0.75-3.61-1.12 1.37-1.1 2.76-2.18 4.17-3.24-0.3101-0.31-0.9401-0.91-1.25-1.22 0.5499 0 1.6299-0.02 2.1699-0.03 0.05-1.54 0.0701-3.09 0.09-4.62 1.0901-2.2 2.25-4.36 3.38-6.54-1.63-0.06-3.25-0.11-4.85-0.17 1.61-1.84 3.34-3.57 5.11-5.27 0-0.6 0.02-1.2 0.05-1.79-3.75-2.77 0.65-6.77 3.71-7.7-0.98-0.19-1.9399-0.38-2.89-0.57 0.26-0.58 0.78-1.74 1.04-2.32 1.34 0.3 2.71 0.6 4.08 0.93-1.01-0.9-2-1.81-2.96-2.73 1.26-2.72 2.79-5.31 4.58-7.71-0.5599-0.19-1.6899-0.59-2.25-0.78-0.2799-2.7-1.58-5.62-0.09-8.18 1.99-3.31 3.22-7 3.0601-10.91 3.84-0.41 5.72-3.84 7.33-6.91-1.5 0.72-2.98 1.46-4.4399 2.23-1.0701-0.72-2.13-1.45-3.17-2.18 0.92-0.16 2.77-0.5 3.6899-0.67 0.78-4.56 0.7001-9.3-0.73-13.73 2.3201-0.83 3.65-2.89 4.8301-4.93-0.91-0.28-2.7301-0.84-3.64-1.13 1.15-1.6 2.4-3.13 3.6899-4.63 1.03 0.4 2.0801 0.79 3.14 1.19 0.41-3.53-0.02-7.03-0.7-10.49 0.36-0.59 1.09-1.77 1.45-2.36 0.4301 1.49 1.02 3.01 1.49 4.52 0.3-5.55 0.9301-11.16-0.04-16.68-1.49 3.21-1.6 6.81-1.83 10.29-0.72-1.1-1.4299-2.2-2.12-3.28 0.13 3.23 0.34 6.47 0.22 9.71-2.7799 2.31-3.2799 6.04-4.61 9.18 0.14-2.77-0.53-5.37-2.58-7.29-0.2001 2.35 0.01 4.76-0.53 7.07-2.45 2.11-5.71 3.42-7.1 6.59-1.2001-0.5-2.38-0.99-3.55-1.49-2.13 1.1-4.25 2.23-6.25 3.55-0.75-0.6-1.5-1.2-2.21-1.79 0.27 1.68 0.54 3.36 0.83 5.04-0.98-0.96-1.7999-1.9-2.72-2.86-0.75 1.23-1.41 2.49-2.24 3.65-3.3101-0.26-5.48-3.4-8.66-4.02-1.47 0.55-2.0499 2.2-3.02 3.3-0.9399-1.01-1.86-2.02-2.7799-3.02 0.0699 0.96 0.2 2.89 0.27 3.85-0.75-0.2-2.2401-0.61-2.9901-0.81 0.3301 1.42 0.64 2.84 0.9901 4.28-2.13-0.27-4.2401-0.56-6.3501-0.83 0.87-2.14 1.78-4.26 2.65-6.41-1.21 0.73-2.41 1.47-3.59 2.22 0.2 1.04 0.41 2.08 0.64 3.13-1.3301 0.46-2.62 0.92-3.91 1.4-1.48-1.35-3-2.7-4.46-4.01 0.63 2.07 1.45 4.14 2.0399 6.25-2.51-2.08-4.63-4.78-8.13-5.11-0.22 2.36-0.87 5.46 2.1801 6.25-0.21 0.47-0.4 0.94-0.58 1.41-2.3201-1.12-4.7101-2.07-7.17-2.81-1.52-1.34-3-2.71-4.47-4.08 0.4199 0.71 1.26 2.13 1.6799 2.84-2.3099-0.52-4.61-0.99-6.9399-1.31-0.59 3.22-4.15 2.21-6.44 2.75 0.7599 1.45 1.53 2.91 2.31 4.36-2-0.56-4-1.15-5.98-1.72-0.29 1.26-0.62 2.5-0.99 3.74-2.25 0.86-4-0.98-5.8-1.97 0.23 0.59 0.68 1.77 0.9 2.35-3.33 0.52-6.71 0.78-10.07 0.56 0.19 0.67 0.56 2.01 0.75 2.68-1.05 1.13-1.96 2.41-3.19 3.35-3.19 0.47-6.38 0.95-9.35 2.24-2.45-1.9-5.27-3.11-8.45-2.84 1.2599 0.97 2.5699 1.91 3.8799 2.85 0.23 1.22 0.47 2.45 0.73 3.67-1.51-0.77-3.04-1.48-4.57-2.17-2.27 1.99-4.45 4.1-6.21 6.57-0.35-0.54-1.05-1.63-1.4-2.18-1.42-0.15-2.84-0.31-4.23-0.45 0.52 1.21 1.05 2.41 1.59 3.62-1.94-0.55-3.85-1.14-5.76-1.74 0.16-3.15-3.39-2.55-5.25-3.97 1.31-1.41 2.64-2.81 3.98-4.21-0.37 1.31-0.73 2.63-1.0699 3.95 0.75-0.21 2.27-0.61 3.03-0.82 0.09 0.68 0.28 2.02 0.37 2.69 0.41-0.46 1.22-1.38 1.63-1.84-1.18-2.07-2.64-4.03-3.15-6.41 3.77 2.12 7.02 5.01 10.44 7.63-0.21-1.38-0.4-2.76-0.58-4.13-2.75-0.86-5.86-1.35-7.56-3.96 3.6 0.31 7.23 0.38 10.81-0.24-0.99-0.71-1.96-1.42-2.93-2.12-0.03-0.61-0.1-1.83-0.13-2.44 1.06 1.12 2.04 2.23 3.11 3.38-0.38-2.03 0.04-3.96 1.23-5.61-1.32-1.08-2.65-2.17-3.92-3.29 1.03 0.28 3.09 0.84 4.12 1.12 2.01 0.45 5.07 2.85 5.87-0.34 1.08 0.85 2.19 1.7 3.3 2.56 0.66-0.03 1.98-0.11 2.65-0.14 0.83 1.1 1.71 2.21 2.58 3.32-0.1-0.72-0.31-2.15-0.41-2.87 0.48 0.02 1.42 0.06 1.9 0.09-0.51-1.36-0.96-2.73-1.45-4.08-1.64 0.08-1.42 2.36-2.19 3.29-3.41-2.76-7.13-5.37-9.18-9.38 0.39-0.01 1.17-0.05 1.56-0.06 1.6 1.97 3.16 3.97 4.68 6.02-0.34-1.96 0.03-3.72 1.09-5.26-0.7401-0.58-1.48-1.16-2.2-1.73 0.9-0.35 1.82-0.7 2.75-1.05-0.03 0.65-0.07 1.95-0.1 2.6 2.31 1.06 4.51 2.33 6.73 3.57-1-4.19-4.4-6.95-7.68-9.39-0.44 0.67-1.34 2-1.78 2.66-1.95-3.39 3.21-4.13 5.57-4.48 0.4 1.62 0.79 3.24 1.17 4.87 2.66 0.22 5.43 1.12 8.09 0.35 0.54-1.28 0.9-2.63 1.33-3.95-1.21-0.85-2.38-1.7-3.57-2.55 0.67-0.29 2.02-0.87 2.69-1.17-0.55-1.64-2.1801-2.39-3.56-3.19-1.56 1.87-2.35 0.31-2.9-1.49 2.51 0.06 4.79 1.04 6.79 2.52 0.82-1.94 1.7-4.24 3.7-5.25-0.47 1-0.94 2-1.42 3 0.95 0.2 2.85 0.62 3.8 0.83-0.11-0.71-0.32-2.13-0.43-2.84 0.91 0.76 1.79 1.53 2.73 2.3 0.37-0.56 1.11-1.67 1.48-2.22 0.89 0.23 1.79 0.47 2.71 0.71-1.11-2.52-1.94-5.16-2.1-7.91 3.78 2.72 7.27 5.9 9.7399 9.9-0.4099-2.04-0.8099-4.08-1.22-6.11 0.5701-1.2 1.16-2.39 1.76-3.59-0.2-0.51-0.61-1.55-0.8199-2.06 0.27-0.21 0.7999-0.63 1.0699-0.85 1.89 4.38 4.12 8.62 6.97 12.46 1.12-0.6 2.25-1.2 3.39-1.8 0.92 0.89 1.86 1.78 2.8 2.66-1.09-4.26-3.8201-7.82-7.25-10.49 0.52 2.37 1.1799 4.77 0.9299 7.23-1.37-2.71-1.59-5.76-2.24-8.68l-0.34-0.52c0.9401-1.11 1.89-2.22 2.85-3.32 3.42 2.32 6.25 5.42 7.78 9.31 0.34-2.01 0.71-4.01 1.04-6.02-2.4701-1.54-4.88-3.5-5.2101-6.61 1.5901 0.44 3.2101 0.92 4.8201 1.38 0.86-1.16 1.75-2.32 2.65-3.48 0.63 1.25 1.2699 2.51 1.9199 3.77-0.72-0.23-2.15-0.69-2.86-0.92 0.96 2.54 1.9 5.1 2.8201 7.67 2.33-0.35 4.6799-0.61 7.0499-0.65-0.71-1.16-1.4299-2.33-2.09-3.51 1.2 0.55 2.41 1.12 3.63 1.69 0.86-0.84 1.74-1.67 2.64-2.49-0.4 1.36-1.3201 2.4-2.48 3.18 1.1699 1.33 2.36 2.66 3.5399 3.99 0.28-1.42 0.55-2.83 0.88-4.24 0.39 0.5 1.1801 1.52 1.5801 2.02 0.6-2.02 1.25-4.02 1.97-6 2.11-1.12 3.66-2.93 4.96-4.9l0.4 2.8c0.75 0.1 2.25 0.28 3 0.37 0 1.24 0.02 2.48 0.0599 3.72 0.9601 0.96 1.92 1.93 2.9 2.91-0.15-0.97-0.27-1.93-0.38-2.89 3.4401-2.99 5.87-7.02 8.42-10.76 0.8 1.78 1.63 3.54 2.5 5.3-0.27-1.39-0.53-2.77-0.79-4.15 1.9601 1.83 3.89 3.69 5.92 5.46 0.09-0.96 0.27-2.88 0.37-3.84 0.1801 2.55 0.4301 5.14 1.4399 7.52 1.05-1.75 2.0601-3.52 3.0801-5.3-0.25-0.68-0.73-2.03-0.97-2.71 1.0599 1.73 2.13 3.45 3.36 5.09-0.3501-2.08-0.75-4.14-1.16-6.2-2.09-0.26-4.16-0.51-6.24-0.64-0.4301-1.32-0.85-2.63-1.25-3.94-0.84 0.62-1.66 1.25-2.46 1.87-0.02-0.75-0.05-2.26-0.0601-3.01-0.8199 0.02-2.45 0.05-3.27 0.07 0.14-0.76 0.4-2.28 0.54-3.04-1.22 1.41-2.42 2.83-3.62 4.24 0.25-1.18 0.52-2.36 0.8099-3.53-1.47 0.05-2.9199 0.15-4.37 0.04-0.6899-2.84-0.61-5.84-1.63-8.59-1.38 0.12-2.71 0.33-4.0499 0.54 0.14-1.21 0.26-2.42 0.4199-3.62-0.98 0.91-1.95 1.84-2.8999 2.76-0.13-0.66-0.4-2-0.54-2.67-0.89 1.12-1.78 2.24-2.64 3.36-1.21-1.44-2.42-2.89-3.59-4.33 2-1.09 4-2.2 5.9299-3.45-1.35-0.09-2.6799-0.17-4-0.24-0.34 0.62-1.01 1.88-1.35 2.51-1.22-0.51-2.42-1.01-3.62-1.5 0.02-1.9 0.05-3.81 0.0701-5.71-1.0601 1.88-2.0801 3.78-3.1101 5.66-0.2999-2.76 0.6001-6.19-1.7-8.29-3.15 0.78-3.67 3.86-3.54 6.66-1.35-2.57-2.58-5.19-3.88-7.77-0.01-1.94 0-3.87 0.0701-5.8-0.4601 1.08-0.9 2.16-1.34 3.24-1.3501-1.8-2.75-3.54-4.2201-5.24-0.63 0.53-1.24 1.07-1.85 1.6-1.45-1.15-2.92-2.29-4.37-3.41-0.24 1.62-0.46 3.25-0.67 4.88-1.34-1.68-2.6699-3.36-4.0199-5.02-0.6101 0.73-1.8301 2.19-2.4401 2.92-1.42-1.37-2.51-2.99-3.3-4.78-0.34 0.61-0.67 1.22-0.98 1.83-2.67-1.84-5.31-3.74-7.72-5.9-0.26 0.61-0.77 1.83-1.03 2.44-1.55 0.41-3.1 0.81-4.63 1.2-2.49-2.04-5.3-3.85-8.67-3.58-0.1299-3.3-2-5.83-4.61-7.67 0.73 2.62 1.17 5.34 0.52 8.04-0.86-1.35-1.63-2.76-2.33-4.18-2.99-0.27-6.02-0.15-8.86 0.87-0.77-1.98-1.89-3.8-3.18-5.47-0.41 0.94-1.25 2.83-1.66 3.77-1.03-1.43-2.04-2.87-3.05-4.31 0.31-1.08 0.62-2.16 0.95-3.25-0.98-0.53-1.94-1.08-2.89-1.62 1.45 0.2 2.92 0.42 4.4 0.63 0.04 0.92 0.13 2.75 0.18 3.67 3.01-1.51 1.67-5.4 2.94-7.99 2.11 3.81 1.93 8.61 4.71 12.06 0.12-1.7 1.54-3.81 0.08-5.3-1.26-1.76-2.53-3.53-3.03-5.67 2.61 1.56 5.03 3.39 7.49 5.19 1.16-0.1 2.33-0.19 3.52-0.28 0.03-0.69 0.09-2.06 0.12-2.74 1.09-0.25 2.18-0.49 3.29-0.73-0.46-1.63-0.93-3.26-1.35-4.9 2.03 2.5 3.96 5.09 6.24 7.39 0.1-0.63 0.3-1.87 0.4-2.49 0.84 2.09 1.7401 4.16 2.72 6.2 0.45-1.48 0.89-2.96 1.32-4.44 1.14-1.27 2.29-2.54 3.65-3.6 2.51 1.51 2.67 4.74 3.78 7.18 2.1-3.36 0.69-7.42 0.36-11.06l-3.2 0.12 0.36-2.12c1.72 0.33 3.55 0.39 5.17 1.18 1.96 1.54-0.06 3.75-0.61 5.5 2.18 1.84 4.3199 6.14 7.7 4.32 2.23-1.28 0.74-3.98 0.61-5.93 1.0699 0.37 2.16 0.74 3.26 1.1-0.53-2.26-1.1801-4.5-2.3301-6.52l-0.6499 2.93c0.0099-1.6 0.0199-3.2 0.0499-4.8 0.2001 0.49 0.6 1.48 0.8 1.98 0.59-0.05 1.78-0.16 2.38-0.21l-1.77 1.05c0.76 1.31 1.53 2.63 2.3099 3.95 1.24-0.7 2.49-1.41 3.76-2.1-0.7999 1.07-1.61 2.13-2.39 3.2 0.25 0.75 0.77 2.24 1.02 2.99 0.66-1.4 1.29-2.8 1.9601-4.2 0.4399 1 0.8899 2 1.35 3.01 0.5699-0.65 1.13-1.31 1.73-1.96 0.28 0.77 0.8199 2.31 1.09 3.08 0.48-0.38 1.42-1.14 1.9-1.52 0.55 0.87 1.15 1.75 1.74 2.63 0.89-2.55 1.9401-5.05 3.3-7.4 1.5 4.31 1.87 8.89 1.8099 13.42 1.27-2.69 2.5901-5.74 5.91-6.28 0.85-1.25 1.65-2.52 2.5-3.79-1.05 5.18-2.45 10.3-2.9401 15.58 0.88 0.12 2.64 0.38 3.52 0.51 0.15 1.29 0.3 2.59 0.48 3.88 2.03-3.72 2.02-7.98 1.8701-12.1-1.38 1.92-2.67 3.89-4.1001 5.76 0.01-3.4 3.16-5.54 3.42-8.89 1.62-0.08 3.25-0.15 4.89-0.23 1.0699 4.06 0.9 8.3-0.6 12.23 1.63-1.3 3.2799-2.57 4.9299-3.87-0.47-2.66-2.23-7.02 1.49-7.95 0.25 0.86 0.74 2.56 0.98 3.42 1.7001 0.13 3.39-0.1 5.1001-0.2-0.26 1.25-0.51 2.49-0.76 3.74-0.51-0.44-1.53-1.33-2.04-1.77-0.96 2.34-1.9301 4.68-2.92 7.01 1.7101 1.1 3.4301 2.2 5.14 3.32 0.73-0.97 1.48-1.94 2.26-2.9 0.05 2.73 0 5.45-0.09 8.17 1.42-0.07 2.86-0.14 4.3-0.21 0.62-0.4 1.25-0.79 1.9099-1.15l0.39 0.09c2.85 0.58 5.78 1.13 8.6801 0.48-0.8501 1.7-1.01 3.49 0.7 4.77-0.98 0.84-1.95 1.69-2.91 2.54-0.01 1.23-0.01 2.46 0.01 3.69 0.52-0.52 1.05-1.04 1.6-1.56 2.3101 0.1 4.63-0.07 6.9301-0.48 2.22 0.27 4.45 0.59 6.66-0.27-0.51 1.51-1.13 2.98-1.66 4.48 2.08-1.27 2.86-3.42 3.17-5.73l2.1499-0.08c-1.58-0.64-3.1899-1.25-4.75-1.88 1.2101-0.45 2.4-0.89 3.63-1.32-0.46-1.56-1.1899-3.09-1.0599-4.75 2.84-1.91 6.21-2.83 9.35-4.17-0.21-1.53-0.41-3.07-0.6-4.6 1.38 0.05 2.77 0.1 4.17 0.15-0.9501-1.04-1.91-2.08-2.8301-3.11 0.7001-0.27 2.0801-0.81 2.77-1.08-1.11-0.91-2.24-1.83-3.3099-2.75 1.97-1.43 4.0299-2.76 6.1499-4 0.26 1.99 0.53 3.98 0.79 5.98 0.36-0.03 1.09-0.07 1.45-0.1 0.12-1.09 0.25-2.17 0.39-3.26-0.77-0.82-1.5299-1.64-2.2799-2.46 0.6499-0.29 1.9299-0.88 2.5699-1.17-0.21-0.78-0.42-1.56-0.61-2.34 2.2999 0.57 4.62 1.06 6.97 1.4-1.6799-1.48-3.4399-2.93-4.51-4.93 1.05 0.53 2.11 1.08 3.17 1.65 2.03-0.13 4.0599-0.27 6.11-0.41-0.52-1.69-1.05-3.38-1.5601-5.06-0.85 0.06-2.5499 0.18-3.3899 0.24 0.2899-0.65 0.59-1.31 0.9199-1.97 2.53 0.15 5.12 0.19 7.5801-0.57 1.8999 0.75 3.74 1.65 5.5 2.71-0.7001-0.86-1.4301-1.73-2.0801-2.6 2.4301-0.25 4.89-0.52 7.3301-0.87 0.0399-0.63 0.1299-1.89 0.1699-2.51 1.75-0.43 3.49-0.87 5.26-1.31-1.01-1.37-2-2.73-2.98-4.1 2.26 0.25 4.53 0.52 6.8099 0.74-0.0499-0.89-0.1599-2.65-0.21-3.53 2.3201-0.87 4.5701-0.11 6.53 1.22-0.14-0.6-0.42-1.82-0.5601-2.42 3.5801 0.04 7.3-0.26 10.68 1.24-0.1091-0.68-0.3091-2.04-0.4091-2.72z" fill="#202020" stroke="#202020"/>
	<path d="m1017.3 80.23c0.53 0.56 0.53 0.56 0 0z" fill="#202020" stroke="#202020"/>
	<path d="m1214.2 80.37c1.9399 0.63 4.1499 1.36 2.63 3.83-1.63-0.69-2.29-2.21-2.63-3.83z" fill="#202020" stroke="#202020"/>
	<path d="m1183.2 83.41c1.66-0.55 2.2101-0.03 1.64 1.56-1.69 0.55-2.24 0.03-1.64-1.56z" fill="#202020" stroke="#202020"/>
	<path d="m1007.3 83.9l0.91-0.04c0.2401 2.79 0.3 5.62-0.18 8.4-2.07-2.44-1.52-5.57-0.73-8.36z" fill="#202020" stroke="#202020"/>
	<path d="m1011.5 86.14c0.89-1.01 3.22-0.7 3.34 0.84-0.29 2.15-4.31 1.16-3.34-0.84z" fill="#202020" stroke="#202020"/>
	<path d="m1021.1 87.3c3.34-0.02-1.44 3.03 0 0z" fill="#202020" stroke="#202020"/>
	<path d="m979.29 89.23c0.49 0.54 0.49 0.54 0 0z" fill="#202020" stroke="#202020"/>
	<path d="m969.13 90.34c1.25 0.21 2.58 0.29 3.78 0.82 0.03 1.33-0.66 2.06-2.0699 2.2-1.2301-0.57-1.3601-1.91-1.7101-3.02z" fill="#202020" stroke="#202020"/>
	<path d="m993.22 90.55c1.3701 0.19 1.63 0.89 0.79 2.08-1.4-0.19-1.66-0.89-0.79-2.08z" fill="#202020" stroke="#202020"/>
	<path d="m1183.2 91.29c0.5 0.54 0.5 0.54 0 0z" fill="#202020" stroke="#202020"/>
	<path d="m1153.9 97.96c1.22-0.41 2.5601 1.45 1.96 2.54-1.22 0.36-2.58-1.46-1.96-2.54z" fill="#202020" stroke="#202020"/>
	<path d="m1077.9 108.86c1.61-0.47 2.2 0.09 1.76 1.7-1.65 0.47-2.23-0.1-1.76-1.7z" fill="#202020" stroke="#202020"/>
	<path d="m863.96 114.03c8.65-2.18 17.26 1.56 25.93 0.35 0.57 0.19 1.72 0.59 2.29 0.79 0.57-0.85 1.14-1.69 1.73-2.54 7.9901 0.76 16.79 2.95 21.34 10.23 0.84-1.12 1.69-2.24 2.54-3.36 5.12 4.88 11.22 8.53 16.59 13.11 4.64 4.14 8.71 9.15 10.73 15.11 1.64 0.21 3.29 0.42 4.95 0.63 1.88 4.09 5.44 7.02 7.58 10.94 1.73 3.08 3.28 6.34 3.91 9.85 1.94 10.36 0.84 20.98-0.82 31.3-0.43 2.36-0.84 4.72-1.23 7.09-2.96 1.53-5.97 3.19-7.95 5.95-2.84 3.9-6.7 6.85-9.82 10.49 2.47-0.83 4.88-1.85 7.27-2.93-0.12 2.09 1.25 4.77-0.67 6.35-1.66 1.51-4.09 0.87-6.11 1.04 0.13 1.17 0.28 2.35 0.44 3.53-1.7 0.2-3.39 0.4-5.06 0.6-6.88 8.83-17.15 13.98-26.26 20.12-4.04-1.97-8.69-1.55-13-1.08-2.54 0.3-2.9901 3.83-5.54 4.15-3.76 0.61-7.23-1.35-10.61-2.66 0.79-1.86 1.52-3.76 2.66-5.44 1.6-0.08 3.23 0.01 4.86 0.06-0.02 0.6-0.06 1.79-0.08 2.39 3.22-0.17 6.36-0.98 9.19-2.55-0.96-1.02-1.9-2.03-2.84-3.03 1.14-1.64 2.47-3.83 4.84-3.27 5.1 1.25 9.45 5.02 14.85 5.23 3.03-0.34 3.29-4.06 4.41-6.27-4.22 0.04-8.36 0.89-12.31 2.34-0.57-1.1-1.11-2.19-1.65-3.28 9.2-2.07 18.75-4.46 26.04-10.83-0.7-0.29-2.09-0.86-2.78-1.14-0.05-1.1-0.08-2.19-0.1-3.28 2.3199 0.18 4.67 0.49 7.03 0.37 0.17-1.93-0.08-3.89 0.34-5.79 1.12-2.72 2.88-5.11 4.31-7.68-2.27 0.77-4.53 1.58-6.72 2.51 0.6-1.42 1.19-2.96 2.6-3.79 3.18-2.31 6.37-4.79 8.5-8.17 1.7599-2.35 0.83-5.42 1.36-8.1 0.94-2.33 2.79-4.18 3.67-6.54 0.31-1.78 0.28-3.6 0.35-5.39-0.5-0.01-1.5099-0.03-2.0099-0.04-1.3 2.12-2.47 4.37-4.22 6.15-1.94 0.37-3.93 0.2-5.85-0.06 0.01-4.37 5.58-5.36 8.53-7.51-2.51-2.19-4.82-4.61-6.54-7.48-0.41 0.28-1.22 0.83-1.63 1.11-1.74-2.41-2.71-5.25-3.35-8.12 1.53 1.79 2.88 3.71 4.15 5.69-0.78-4.84-0.03-9.74-0.41-14.59-0.99-1.32-2.6-1.93-3.94-2.79-1.25 3.65-2.72 7.36-2.65 11.27 0.2 3.09 3.45 4.97 3.54 8.1-1.32-0.41-2.45-1.19-3.04-2.44-2.56-4.35-5.23-8.64-7.32-13.24 2.03-1.26 4.19-1.02 6.23 0.06-4.17-6.47-7.6-14.23-14.87-17.83-2.66-1.54-5.79-1.34-8.73-1.18 0.9 1.93 1.84 3.85 2.79 5.76-2.57-1.45-5.23-2.75-8.09-3.51 2.7 3.62 6.45 6.23 9.32 9.7 7.58 8.88 13.01 19.48 16.67 30.52 0.68 6.54-4.16 11.9-6.46 17.66 0.15 2.47 1.36 4.78 1.8799 7.21-2.6299 1.84-4.9 4.11-7.1299 6.4-1.48 1.38-3.09 2.63-4.67 3.88 0.84 0.29 2.52 0.85 3.36 1.13-3.6201 7.33-11.41 11.06-18.88 13.25-4.52 1.42-9.08 2.77-13.8 3.32 4.9901-4.26 11.37-6.43 16.28-10.82-6.94 1.31-12.5 6.34-19.62 7.11 0.74 0.64 1.5 1.29 2.27 1.94-6.21 3.9-13.38-0.18-19.99 1.28-1.49 0.24-3.14 0.56-4.44-0.41-5.4-3.34-9.2599-8.76-15.1-11.48-0.19 1.89-0.35 3.77-0.51 5.66-2.1-1.01-4.46-1.81-6-3.64-0.1-1.18-0.02-2.36 0.02-3.53-0.4-0.36-1.22-1.08-1.63-1.44-0.58 1.13-1.14 2.25-1.69 3.38-0.26-0.78-0.5-1.56-0.72-2.33 0.42-4.37-3.28-7.28-5.41-10.6-2.38-3.13-3.04-7.31-5.96-10.03-2.36-2.32-4.72-4.64-7.03-7 0.09 3.67 1.91 6.86 3.12 10.22l-1.24 0.82c-3.34-3.02-4.24-7.64-5.41-11.78 1.62-2.84 1.26-6.05-1.09-8.36 0.09-5.18 4.34-9.81 1.98-15.02 0.57-0.31 1.7-0.91 2.27-1.22-0.19-2.01-0.37-4.01-0.52-6.02 3.36-0.99 4.84-4.19 6.33-7.04 1.33-0.49 2.68-0.98 4.04-1.47-1.14-0.65-2.27-1.3-3.38-1.96 1.81-2.48 3.67-4.99 6.14-6.88 2.22-1.9 5.16-3.49 5.67-6.65 4.24-1.78 7.72-4.83 11.47-7.42-0.02-0.86-0.04-1.72-0.04-2.58 1.73-0.61 3.5-1.17 5.11-2.1 5.93-3.68 13.02-4.55 19.59-6.58-1.3801-1.31-2.7601-2.6-4.1501-3.88z" fill="#FDC473" stroke="#FDC473"/>
	<path d="m1094.2 114.26c0.51 0.54 0.51 0.54 0 0z" fill="#202020" stroke="#202020"/>
	<path d="m1090.8 121.58c1.49-1.09 2.58-5.69 4.8099-3.28-0.0199 1.15-0.13 2.29-0.21 3.44-1.5498-0.07-3.0799-0.12-4.5999-0.16z" fill="#202020" stroke="#202020"/>
	<path d="m1218.8 147.38c3.32-0.05-1.4199 3.07 0 0z" fill="#202020" stroke="#202020"/>
	<path d="m919.93 151.71c1.09-0.86 1.84-2.71 3.48-2.46 0.15 0.57 0.46 1.7 0.61 2.27-1.37 0.07-2.74 0.13-4.09 0.19z" fill="#FDC473" stroke="#FDC473"/>
	<path d="m1072.4 157.16c1.72 0.21 2.58 1.9 3.77 2.97-0.99 0.71-2.03 1.32-3.1 1.84-1.3-1.16-1.62-3.32-0.67-4.81z" fill="#202020" stroke="#202020"/>
	<path d="m1173.9 157.55c0.5399 0.53 0.5399 0.53 0 0z" fill="#202020" stroke="#202020"/>
	<path d="m1228.2 160.06c1.1001 0.36 2.2201 0.75 3.3401 1.15-0.89 0.73-1.64 2.01-2.9501 1.51-0.1-0.67-0.29-2-0.39-2.66z" fill="#202020" stroke="#202020"/>
	<path d="m926.32 164.4c1.17-0.73 2.54 1.24 1.61 2.17-1.19 0.72-2.52-1.24-1.61-2.17z" fill="#FDC473" stroke="#FDC473"/>
	<path d="m1138.8 176.04c-1.5-0.45-0.9199-3.03 0.4-3.38 1.43 0.45 0.8399 3.01-0.4 3.38z" fill="#202020" stroke="#202020"/>
	<path d="m939.36 190.91c2.4-0.89 1.52 3.26-0.4 2.92-1.52-0.36-0.67-2.52 0.4-2.92z" fill="#FDC473" stroke="#FDC473"/>
	<path d="m1171.3 196.17c0.48 0.56 0.48 0.56 0 0z" fill="#202020" stroke="#202020"/>
	<path d="m1181.1 200.77c2.91-1.57 0.22 3.37 0 0z" fill="#202020" stroke="#202020"/>
	<path d="m961.21 208.28c0.63 0.47 0.63 0.47 0 0z" fill="#202020" stroke="#202020"/>
	<path d="m957.24 217.14c1.46-0.37 2.96-0.66 4.49-0.82-0.39 0.78-1.18 2.34-1.57 3.12-0.81-0.07-1.61-0.14-2.39-0.2-0.14-0.53-0.4-1.57-0.53-2.1z" fill="#202020" stroke="#202020"/>
	<path d="m1198.3 219.06c1.7999-0.25 2.75 0.44 2.33 2.31-0.58 0.07-1.74 0.21-2.33 0.28v-2.59z" fill="#202020" stroke="#202020"/>
	<path d="m1119.2 225.62c-0.77-0.85-0.65-3.26 0.75-3.3 0.6699 0.86 0.63 3.27-0.75 3.3z" fill="#202020" stroke="#202020"/>
	<path d="m1116.6 235.08c0.6801-1.01 1.5901-1.13 2.7201-0.37 0.1 0.42 0.2999 1.28 0.3899 1.7-1.06 0.69-3.0101 0.01-3.11-1.33z" fill="#202020" stroke="#202020"/>
	<path d="m855.72 244.75c4.04-0.11 8.11 0.98 11.59 3.04-3.8 0.89-7.92 0.93-11.51-0.71-0.02-0.58-0.06-1.75-0.08-2.33z" fill="#FDC473" stroke="#FDC473"/>
	<path d="m1096.9 252.39c1.15-0.75 3.34 1.03 1.99 2.1-1.1901 0.76-3.27-1.01-1.99-2.1z" fill="#FBCD2F" stroke="#FBCD2F"/>
	<path d="m1091 315.9c-0.47-1.59-1.15-3.58 0.91-4.4-0.28 1.47-0.58 2.94-0.91 4.4z" fill="#202020" stroke="#202020"/>
	<path d="m1067.4 316.23c0.9701-1.62 3.39 0.21 2.2301 1.64-1.03 1.56-3.46-0.22-2.2301-1.64z" fill="#FBCD2F" stroke="#FBCD2F"/>
	<path d="m111.52 327.93c0.18-1.68 3.14-1.68 3.36-0.03-0.26 1.55-3.1 1.62-3.36 0.03z" fill="#FBCD2F" stroke="#FBCD2F"/>
	<path d="m1069.3 335.45c1.6 0.16 3.3 0.35 3.01 2.48-0.64-0.15-1.92-0.44-2.5701-0.58-0.1099-0.48-0.3299-1.42-0.4399-1.9z" fill="#FBCD2F" stroke="#FBCD2F"/>
	<path d="m23.23 336.25c0.57 0.55 0.57 0.55 0 0z" fill="#FBCD2F" stroke="#FBCD2F"/>
	<path d="m348.65 338.9c0-1.8 3.01-1.66 3.2-0.01-0.06 1.73-2.93 1.54-3.2 0.01z" fill="#FBCD2F" stroke="#FBCD2F"/>
	<path d="m423.14 338.19c3.01-1.51 0.11 3.33 0 0z" fill="#FBCD2F" stroke="#FBCD2F"/>
	<path d="m945.23 339.3c0.56 0.54 0.56 0.54 0 0z" fill="#202020" stroke="#202020"/>
</g>
</svg>